version 1.00
202
[0.0697, 1.63522, -0.035688][1.00000, 0.00000, 0.00000][0.25243, 0.64723, 0][0.0697, 2.46174, -0.035688][1.00000, 0.00000, 0.00000][0.25243, 0.98625, 0][0.0697, 1.63522, 0.035688][1.00000, 0.00000, 0.00000][0.25243, 0.64723, 0][0.0697, 2.46174, 0.035688][1.00000, 0.00000, 0.00000][0.25243, 0.98625, 0][0.0697, 1.63522, 0.035688][1.00000, 0.00000, 0.00000][0.25243, 0.64723, 0][0.0697, 2.46174, -0.035688][1.00000, 0.00000, 0.00000][0.25243, 0.98625, 0][0.105746, 2.76624, 0.054145][0.77775, 0.62857, 0.00000][0.37474, 0.97678, 0][0.171032, 2.68546, 0.087573][0.89730, 0.44142, 0.00000][0.36394, 0.95069, 0][0.105746, 2.76624, -0.054145][0.77775, 0.62857, 0.00000][0.40972, 0.97678, 0][0.171032, 2.68546, -0.087573][0.97534, 0.22071, 0.00000][0.42052, 0.95069, 0][0.105746, 2.76624, -0.054145][0.77775, 0.62857, 0.00000][0.40972, 0.97678, 0][0.171032, 2.68546, 0.087573][0.89730, 0.44142, 0.00000][0.36394, 0.95069, 0][0.171032, 2.68546, 0.087573][0.89730, 0.44142, 0.00000][0.36394, 0.95069, 0][0.171032, 2.52388, 0.087573][1.00000, 0.00000, 0.00000][0.36394, 0.89849, 0][0.171032, 2.68546, -0.087573][0.97534, 0.22071, 0.00000][0.42052, 0.95069, 0][0.171032, 2.52388, -0.087573][1.00000, 0.00000, 0.00000][0.42052, 0.89849, 0][0.171032, 2.68546, -0.087573][0.97534, 0.22071, 0.00000][0.42052, 0.95069, 0][0.171032, 2.52388, 0.087573][1.00000, 0.00000, 0.00000][0.36394, 0.89849, 0][0.068824, 2.68546, -0.176075][0.99846, 0.00000, -0.05552][0.44911, 0.95069, 0][0.068824, 2.52388, -0.176075][0.99846, 0.00000, -0.05552][0.44911, 0.89849, 0][0.042468, 2.65452, -0.650014][0.99713, 0.00000, -0.07576][0.60222, 0.94069, 0][0.042468, 2.55482, -0.650014][0.99524, -0.02560, -0.09407][0.60222, 0.90848, 0][0.042468, 2.65452, -0.650014][0.99713, 0.00000, -0.07576][0.60222, 0.94069, 0][0.068824, 2.52388, -0.176075][0.99846, 0.00000, -0.05552][0.44911, 0.89849, 0][0.042468, 2.65452, -0.650014][0.99713, 0.00000, -0.07576][0.60222, 0.94069, 0][0.042468, 2.55482, -0.650014][0.99524, -0.02560, -0.09407][0.60222, 0.90848, 0][0.020944, 2.54129, -0.834072][0.99561, -0.03376, -0.08727][0.66168, 0.90411, 0][0.020944, 2.50261, -0.807152][0.99731, -0.04190, -0.06020][0.65298, 0.89162, 0][0.020944, 2.54129, -0.834072][0.99561, -0.03376, -0.08727][0.66168, 0.90411, 0][0.042468, 2.55482, -0.650014][0.99524, -0.02560, -0.09407][0.60222, 0.90848, 0][0.020944, 2.54129, -0.834072][0.99561, -0.03376, -0.08727][0.66168, 0.90411, 0][0.020944, 2.50261, -0.807152][0.99731, -0.04190, -0.06020][0.65298, 0.89162, 0][0.017511, 2.48461, -0.89234][0.99909, -0.02443, -0.03510][0.68050, 0.88580, 0][0.017511, 2.45227, -0.869832][0.99909, -0.02443, -0.03510][0.67323, 0.87536, 0][0.017511, 2.48461, -0.89234][0.99909, -0.02443, -0.03510][0.68050, 0.88580, 0][0.020944, 2.50261, -0.807152][0.99731, -0.04190, -0.06020][0.65298, 0.89162, 0][0.14068, 1.4918, 0.147477][0.86043, 0.00000, 0.50957][0.20566, 0.90468, 0][0.201349, 1.4918, 0.045035][0.93646, 0.00000, 0.35077][0.14811, 0.90468, 0][0.14068, 1.63326, 0.147477][0.86043, 0.00000, 0.50957][0.20566, 0.98415, 0][0.14068, 1.63326, 0.147477][0.86043, 0.00000, 0.50957][0.20566, 0.98415, 0][0.201349, 1.4918, 0.045035][0.93646, 0.00000, 0.35077][0.14811, 0.90468, 0][0.201349, 1.63326, 0.045035][0.98450, 0.00000, 0.17538][0.14811, 0.98415, 0][0.201349, 1.4918, 0.045035][0.93646, 0.00000, 0.35077][0.14811, 0.90468, 0][0.201349, 1.4918, -0.045035][0.98450, 0.00000, -0.17538][0.09752, 0.90468, 0][0.201349, 1.63326, 0.045035][0.98450, 0.00000, 0.17538][0.14811, 0.98415, 0][0.201349, 1.4918, -0.045035][0.98450, 0.00000, -0.17538][0.09752, 0.90468, 0][0.14068, 1.4918, -0.147477][0.86043, 0.00000, -0.50957][0.03997, 0.90468, 0][0.201349, 1.63326, -0.045035][0.93646, 0.00000, -0.35077][0.09752, 0.98415, 0][0.201349, 1.63326, -0.045035][0.93646, 0.00000, -0.35077][0.09752, 0.98415, 0][0.201349, 1.63326, 0.045035][0.98450, 0.00000, 0.17538][0.14811, 0.98415, 0][0.201349, 1.4918, -0.045035][0.98450, 0.00000, -0.17538][0.09752, 0.90468, 0][0.201349, 1.63326, -0.045035][0.93646, 0.00000, -0.35077][0.09752, 0.98415, 0][0.14068, 1.4918, -0.147477][0.86043, 0.00000, -0.50957][0.03997, 0.90468, 0][0.14068, 1.63326, -0.147477][0.86043, 0.00000, -0.50957][0.03997, 0.98415, 0][0.554429, 1.48545, -0.294284][0.99747, 0.07104, 0.00000][0.84973, 0.30032, 0][0.554429, 1.48545, 0.294284][0.99747, 0.07104, 0.00000][0.95812, 0.30032, 0][0.610291, 0.701041, -0.324118][0.99502, 0.09970, 0.00000][0.84424, 0.15587, 0][0.610291, 0.701041, 0.324118][0.99502, 0.09970, 0.00000][0.96362, 0.15587, 0][0.610291, 0.701041, -0.324118][0.99502, 0.09970, 0.00000][0.84424, 0.15587, 0][0.554429, 1.48545, 0.294284][0.99747, 0.07104, 0.00000][0.95812, 0.30032, 0][0.610291, 0.701041, 0.324118][0.99502, 0.09970, 0.00000][0.96362, 0.15587, 0][0.711197, -0.079035, 0.408961][0.99174, 0.12829, 0.00000][0.97924, 0.01221, 0][0.610291, 0.701041, -0.324118][0.99502, 0.09970, 0.00000][0.84424, 0.15587, 0][0.711197, -0.079035, -0.408961][0.99174, 0.12829, 0.00000][0.82862, 0.01221, 0][0.610291, 0.701041, -0.324118][0.99502, 0.09970, 0.00000][0.84424, 0.15587, 0][0.711197, -0.079035, 0.408961][0.99174, 0.12829, 0.00000][0.97924, 0.01221, 0][0.668727, -0.127403, 0.367554][0.75144, -0.65981, 0.00000][0.23132, 0.02929, 0][0.711197, -0.079035, -0.408961][0.75144, -0.65981, 0.00000][0.03034, 0.01830, 0][0.711197, -0.079035, 0.408961][0.75144, -0.65981, 0.00000][0.24203, 0.01830, 0][0.668727, -0.127403, -0.367554][0.75144, -0.65981, 0.00000][0.04106, 0.02929, 0][0.711197, -0.079035, -0.408961][0.75144, -0.65981, 0.00000][0.03034, 0.01830, 0][0.668727, -0.127403, 0.367554][0.75144, -0.65981, 0.00000][0.23132, 0.02929, 0][-0.171032, 2.68546, -0.087573][-0.50076, 0.64403, -0.57832][0.42052, 0.95069, 0][-0.105746, 2.76624, -0.054145][-0.40357, 0.70173, -0.58711][0.40972, 0.97678, 0][-0.068823, 2.68546, -0.176075][-0.40357, 0.70173, -0.58711][0.44911, 0.95069, 0][-0.105746, 2.76624, 0.054145][0.00000, 1.00000, 0.00000][0.37474, 0.97678, 0][0, 2.76624, 0.10829][0.00000, 1.00000, 0.00000][0.35725, 0.97678, 0][-0.105746, 2.76624, -0.054145][0.00000, 1.00000, 0.00000][0.40972, 0.97678, 0][-0.105746, 2.76624, -0.054145][0.00000, 1.00000, 0.00000][0.40972, 0.97678, 0][0, 2.76624, 0.10829][0.00000, 1.00000, 0.00000][0.35725, 0.97678, 0][0, 2.76624, -0.10829][0.00000, 1.00000, 0.00000][0.42722, 0.97678, 0][0.105746, 2.76624, -0.054145][0.00000, 1.00000, 0.00000][0.40972, 0.97678, 0][0, 2.76624, -0.10829][0.00000, 1.00000, 0.00000][0.42722, 0.97678, 0][0, 2.76624, 0.10829][0.00000, 1.00000, 0.00000][0.35725, 0.97678, 0][0.105746, 2.76624, 0.054145][0.00000, 1.00000, 0.00000][0.37474, 0.97678, 0][0.105746, 2.76624, -0.054145][0.00000, 1.00000, 0.00000][0.40972, 0.97678, 0][0, 2.76624, 0.10829][0.00000, 1.00000, 0.00000][0.35725, 0.97678, 0][0, 2.76621, -0.108317][-0.30120, 0.75041, -0.58836][0.42722, 0.97677, 0][-0.068823, 2.68546, -0.176075][-0.40357, 0.70173, -0.58711][0.44911, 0.95069, 0][-0.105746, 2.76624, -0.054145][-0.40357, 0.70173, -0.58711][0.40972, 0.97678, 0][0.068824, 2.68546, -0.176075][0.40357, 0.70173, -0.58711][0.44911, 0.95069, 0][0, 2.76621, -0.108317][0.30120, 0.75041, -0.58836][0.42722, 0.97677, 0][0.105746, 2.76624, -0.054145][0.40357, 0.70173, -0.58711][0.40972, 0.97678, 0][0.171032, 2.68546, -0.087573][0.50077, 0.64404, -0.57832][0.42052, 0.95069, 0][0.068824, 2.68546, -0.176075][0.40357, 0.70173, -0.58711][0.44911, 0.95069, 0][0.105746, 2.76624, -0.054145][0.40357, 0.70173, -0.58711][0.40972, 0.97678, 0][0.068824, 2.68546, -0.176075][0.00000, 0.99788, -0.06514][0.44911, 0.95069, 0][0.042468, 2.65452, -0.650014][0.00000, 0.97460, -0.22393][0.60222, 0.94069, 0][-0.068823, 2.68546, -0.176075][0.00000, 0.99788, -0.06514][0.44911, 0.95069, 0][0.042468, 2.65452, -0.650014][0.00000, 0.97460, -0.22393][0.60222, 0.94069, 0][-0.042468, 2.65452, -0.650014][0.00000, 0.92458, -0.38098][0.60222, 0.94069, 0][-0.068823, 2.68546, -0.176075][0.00000, 0.99788, -0.06514][0.44911, 0.95069, 0][0.020944, 2.54129, -0.834072][0.00000, 0.81112, -0.58488][0.66168, 0.90411, 0][-0.042468, 2.65452, -0.650014][0.00000, 0.92458, -0.38098][0.60222, 0.94069, 0][0.042468, 2.65452, -0.650014][0.00000, 0.97460, -0.22393][0.60222, 0.94069, 0][0.020944, 2.54129, -0.834072][0.00000, 0.81112, -0.58488][0.66168, 0.90411, 0][-0.020944, 2.54129, -0.834072][0.00000, 0.76590, -0.64296][0.66168, 0.90411, 0][-0.042468, 2.65452, -0.650014][0.00000, 0.92458, -0.38098][0.60222, 0.94069, 0][0.020944, 2.54129, -0.834072][0.00000, 0.81112, -0.58488][0.66168, 0.90411, 0][0.017511, 2.48461, -0.89234][0.00000, 0.71681, -0.69727][0.68050, 0.88580, 0][-0.020944, 2.54129, -0.834072][0.00000, 0.76590, -0.64296][0.66168, 0.90411, 0][-0.020944, 2.54129, -0.834072][0.00000, 0.76590, -0.64296][0.66168, 0.90411, 0][0.017511, 2.48461, -0.89234][0.00000, 0.71681, -0.69727][0.68050, 0.88580, 0][-0.017511, 2.48461, -0.89234][0.00000, 0.71681, -0.69727][0.68050, 0.88580, 0][0.14068, 1.63326, 0.079182][0.01361, 0.99988, 0.00783][0.20260, 0.74006, 0][0.14068, 1.63326, 0.147477][0.01163, 0.99992, 0.00431][0.20260, 0.70170, 0][0.201349, 1.63326, 0.045035][0.01075, 0.99993, 0.00587][0.23669, 0.75924, 0][0.14068, 1.63326, 0.079182][0.01361, 0.99988, 0.00783][0.20260, 0.74006, 0][0.0697, 1.63522, 0.035688][0.01391, 0.99985, 0.00986][0.16273, 0.76450, 0][0.14068, 1.63326, 0.147477][0.01163, 0.99992, 0.00431][0.20260, 0.70170, 0][0.14068, 1.63326, 0.079182][0.01361, 0.99988, 0.00783][0.20260, 0.74006, 0][0.201349, 1.63326, 0.045035][0.01075, 0.99993, 0.00587][0.23669, 0.75924, 0][0.0697, 1.63522, 0.035688][0.01391, 0.99985, 0.00986][0.16273, 0.76450, 0][0.060669, 1.63326, 0.192512][0.00030, 0.99993, 0.01208][0.15766, 0.67640, 0][0.14068, 1.63326, 0.147477][0.01163, 0.99992, 0.00431][0.20260, 0.70170, 0][0.0697, 1.63522, 0.035688][0.01391, 0.99985, 0.00986][0.16273, 0.76450, 0][0.0697, 1.63522, 0.035688][0.01391, 0.99985, 0.00986][0.16273, 0.76450, 0][0.201349, 1.63326, 0.045035][0.01075, 0.99993, 0.00587][0.23669, 0.75924, 0][0.0697, 1.63522, -0.035688][0.01408, 0.99987, -0.00821][0.16273, 0.80459, 0][0.201349, 1.63326, 0.045035][0.01075, 0.99993, 0.00587][0.23669, 0.75924, 0][0.201349, 1.63326, -0.045035][0.00937, 0.99993, -0.00783][0.23669, 0.80984, 0][0.0697, 1.63522, -0.035688][0.01408, 0.99987, -0.00821][0.16273, 0.80459, 0][0.0697, 1.63522, 0.035688][0.01391, 0.99985, 0.00986][0.16273, 0.76450, 0][0, 1.63522, 0.071377][0.00000, 0.99984, 0.01770][0.12358, 0.74445, 0][0.060669, 1.63326, 0.192512][0.00030, 0.99993, 0.01208][0.15766, 0.67640, 0][0.14068, 1.63326, -0.079182][0.01361, 0.99988, -0.00783][0.20260, 0.82903, 0][0.0697, 1.63522, -0.035688][0.01408, 0.99987, -0.00821][0.16273, 0.80459, 0][0.201349, 1.63326, -0.045035][0.00937, 0.99993, -0.00783][0.23669, 0.80984, 0][0, 1.63326, 0.158364][0.00000, 0.99989, 0.01502][0.12358, 0.69558, 0][0.060669, 1.63326, 0.192512][0.00030, 0.99993, 0.01208][0.15766, 0.67640, 0][0, 1.63522, 0.071377][0.00000, 0.99984, 0.01770][0.12358, 0.74445, 0][0, 1.63326, 0.158364][0.00000, 0.99989, 0.01502][0.12358, 0.69558, 0][-0.060669, 1.63326, 0.192512][-0.00030, 0.99993, 0.01208][0.08949, 0.67640, 0][0.060669, 1.63326, 0.192512][0.00030, 0.99993, 0.01208][0.15766, 0.67640, 0][0, 1.63326, 0.158364][0.00000, 0.99989, 0.01502][0.12358, 0.69558, 0][0, 1.63522, 0.071377][0.00000, 0.99984, 0.01770][0.12358, 0.74445, 0][-0.060669, 1.63326, 0.192512][-0.00030, 0.99993, 0.01208][0.08949, 0.67640, 0][-0.0697, 1.63522, 0.035688][-0.01408, 0.99987, 0.00821][0.08442, 0.76450, 0][-0.060669, 1.63326, 0.192512][-0.00030, 0.99993, 0.01208][0.08949, 0.67640, 0][0, 1.63522, 0.071377][0.00000, 0.99984, 0.01770][0.12358, 0.74445, 0][0.14068, 1.63326, -0.079182][0.01361, 0.99988, -0.00783][0.20260, 0.82903, 0][0.201349, 1.63326, -0.045035][0.00937, 0.99993, -0.00783][0.23669, 0.80984, 0][0.14068, 1.63326, -0.147477][0.01163, 0.99992, -0.00431][0.20260, 0.86739, 0][0.14068, 1.63326, -0.079182][0.01361, 0.99988, -0.00783][0.20260, 0.82903, 0][0.14068, 1.63326, -0.147477][0.01163, 0.99992, -0.00431][0.20260, 0.86739, 0][0.0697, 1.63522, -0.035688][0.01408, 0.99987, -0.00821][0.16273, 0.80459, 0][0.14068, 1.63326, -0.147477][0.01163, 0.99992, -0.00431][0.20260, 0.86739, 0][0.060669, 1.63326, -0.192512][0.00030, 0.99993, -0.01208][0.15766, 0.89269, 0][0.0697, 1.63522, -0.035688][0.01408, 0.99987, -0.00821][0.16273, 0.80459, 0][0.0697, 1.63522, -0.035688][0.01408, 0.99987, -0.00821][0.16273, 0.80459, 0][0.060669, 1.63326, -0.192512][0.00030, 0.99993, -0.01208][0.15766, 0.89269, 0][0, 1.63522, -0.071377][-0.00000, 0.99984, -0.01770][0.12358, 0.82464, 0][0, 1.63326, -0.158364][-0.00000, 0.99989, -0.01502][0.12358, 0.87351, 0][0, 1.63522, -0.071377][-0.00000, 0.99984, -0.01770][0.12358, 0.82464, 0][0.060669, 1.63326, -0.192512][0.00030, 0.99993, -0.01208][0.15766, 0.89269, 0][0, 1.63326, -0.158364][-0.00000, 0.99989, -0.01502][0.12358, 0.87351, 0][-0.060669, 1.63326, -0.192512][-0.00030, 0.99993, -0.01208][0.08949, 0.89269, 0][0, 1.63522, -0.071377][-0.00000, 0.99984, -0.01770][0.12358, 0.82464, 0][0, 1.63326, -0.158364][-0.00000, 0.99989, -0.01502][0.12358, 0.87351, 0][0.060669, 1.63326, -0.192512][0.00030, 0.99993, -0.01208][0.15766, 0.89269, 0][-0.060669, 1.63326, -0.192512][-0.00030, 0.99993, -0.01208][0.08949, 0.89269, 0][-0.0697, 1.63522, -0.035688][-0.01391, 0.99985, -0.00986][0.08442, 0.80459, 0][0, 1.63522, -0.071377][-0.00000, 0.99984, -0.01770][0.12358, 0.82464, 0][-0.060669, 1.63326, -0.192512][-0.00030, 0.99993, -0.01208][0.08949, 0.89269, 0][-0.060669, 1.63326, -0.192512][-0.00030, 0.99993, -0.01208][0.08949, 0.89269, 0][-0.14068, 1.63326, -0.147477][-0.01163, 0.99992, -0.00431][0.04455, 0.86739, 0][-0.0697, 1.63522, -0.035688][-0.01391, 0.99985, -0.00986][0.08442, 0.80459, 0][-0.14068, 1.63326, -0.079182][-0.01361, 0.99988, -0.00783][0.04455, 0.82903, 0][-0.0697, 1.63522, -0.035688][-0.01391, 0.99985, -0.00986][0.08442, 0.80459, 0][-0.14068, 1.63326, -0.147477][-0.01163, 0.99992, -0.00431][0.04455, 0.86739, 0][-0.14068, 1.63326, -0.079182][-0.01361, 0.99988, -0.00783][0.04455, 0.82903, 0][-0.201349, 1.63326, -0.045035][-0.01075, 0.99993, -0.00587][0.01046, 0.80984, 0][-0.0697, 1.63522, -0.035688][-0.01391, 0.99985, -0.00986][0.08442, 0.80459, 0][-0.14068, 1.63326, -0.079182][-0.01361, 0.99988, -0.00783][0.04455, 0.82903, 0][-0.14068, 1.63326, -0.147477][-0.01163, 0.99992, -0.00431][0.04455, 0.86739, 0][-0.201349, 1.63326, -0.045035][-0.01075, 0.99993, -0.00587][0.01046, 0.80984, 0][-0.0697, 1.63522, -0.035688][-0.01391, 0.99985, -0.00986][0.08442, 0.80459, 0][-0.201349, 1.63326, -0.045035][-0.01075, 0.99993, -0.00587][0.01046, 0.80984, 0][-0.0697, 1.63522, 0.035688][-0.01408, 0.99987, 0.00821][0.08442, 0.76450, 0][-0.201349, 1.63326, -0.045035][-0.01075, 0.99993, -0.00587][0.01046, 0.80984, 0][-0.201349, 1.63326, 0.045035][-0.00937, 0.99993, 0.00783][0.01046, 0.75924, 0][-0.0697, 1.63522, 0.035688][-0.01408, 0.99987, 0.00821][0.08442, 0.76450, 0][-0.14068, 1.63326, 0.079182][-0.01361, 0.99988, 0.00783][0.04455, 0.74006, 0][-0.0697, 1.63522, 0.035688][-0.01408, 0.99987, 0.00821][0.08442, 0.76450, 0][-0.201349, 1.63326, 0.045035][-0.00937, 0.99993, 0.00783][0.01046, 0.75924, 0][-0.14068, 1.63326, 0.079182][-0.01361, 0.99988, 0.00783][0.04455, 0.74006, 0][-0.201349, 1.63326, 0.045035][-0.00937, 0.99993, 0.00783][0.01046, 0.75924, 0][-0.14068, 1.63326, 0.147477][-0.01163, 0.99992, 0.00431][0.04455, 0.70170, 0][-0.14068, 1.63326, 0.079182][-0.01361, 0.99988, 0.00783][0.04455, 0.74006, 0][-0.14068, 1.63326, 0.147477][-0.01163, 0.99992, 0.00431][0.04455, 0.70170, 0][-0.0697, 1.63522, 0.035688][-0.01408, 0.99987, 0.00821][0.08442, 0.76450, 0][-0.14068, 1.63326, 0.147477][-0.01163, 0.99992, 0.00431][0.04455, 0.70170, 0][-0.060669, 1.63326, 0.192512][-0.00030, 0.99993, 0.01208][0.08949, 0.67640, 0][-0.0697, 1.63522, 0.035688][-0.01408, 0.99987, 0.00821][0.08442, 0.76450, 0][0.507181, 1.52948, 0.252279][0.22651, 0.89386, 0.38692][0.05753, 0.04392, 0][0, 1.48545, 0.344142][0.00000, 0.72462, 0.68915][0.02868, 0.20318, 0][0.554429, 1.48545, 0.294284][0.06188, 0.72292, 0.68816][0.04434, 0.02909, 0][0, 1.48545, 0.344142][0.00000, 0.72462, 0.68915][0.02868, 0.20318, 0][0.507181, 1.52948, 0.252279][0.22651, 0.89386, 0.38692][0.05753, 0.04392, 0][0, 1.52948, 0.297803][0.00000, 0.96959, 0.24475][0.04323, 0.20318, 0][0.507181, 1.52948, 0.252279][0.22651, 0.89386, 0.38692][0.05753, 0.04392, 0][0.554429, 1.48545, 0.294284][0.68175, 0.73158, 0.00000][0.04434, 0.02909, 0][0.507181, 1.52948, -0.252279][0.28000, 0.92440, -0.25901][0.21596, 0.04392, 0][0.507181, 1.52948, 0.252279][0.22651, 0.89386, 0.38692][0.05753, 0.04392, 0][0.507181, 1.52948, -0.252279][0.28000, 0.92440, -0.25901][0.21596, 0.04392, 0][0, 1.52948, 0.297803][0.00000, 0.96959, 0.24475][0.04323, 0.20318, 0][0.507181, 1.52948, -0.252279][0.28000, 0.92440, -0.25901][0.21596, 0.04392, 0][0, 1.52948, -0.297804][-0.00000, 0.92883, -0.37050][0.23025, 0.20318, 0][0, 1.52948, 0.297803][0.00000, 0.96959, 0.24475][0.04323, 0.20318, 0][0.507181, 1.52948, -0.252279][0.28000, 0.92440, -0.25901][0.21596, 0.04392, 0][0.554429, 1.48545, 0.294284][0.68175, 0.73158, 0.00000][0.04434, 0.02909, 0][0.554429, 1.48545, -0.294284][0.68175, 0.73158, 0.00000][0.22915, 0.02909, 0][0, 1.52948, -0.297804][-0.00000, 0.92883, -0.37050][0.23025, 0.20318, 0][0.507181, 1.52948, -0.252279][0.28000, 0.92440, -0.25901][0.21596, 0.04392, 0][0, 1.48545, -0.344143][0.00000, 0.72462, -0.68915][0.24480, 0.20318, 0][0.554429, 1.48545, -0.294284][0.06189, 0.72292, -0.68816][0.22915, 0.02909, 0][0, 1.48545, -0.344143][0.00000, 0.72462, -0.68915][0.24480, 0.20318, 0][0.507181, 1.52948, -0.252279][0.28000, 0.92440, -0.25901][0.21596, 0.04392, 0][-0.507181, 1.52948, -0.252279][-0.18009, 0.93431, -0.30763][0.21596, 0.36244, 0][0, 1.52948, 0.297803][0.00000, 0.96959, 0.24475][0.04323, 0.20318, 0][0, 1.52948, -0.297804][-0.00000, 0.92883, -0.37050][0.23025, 0.20318, 0][0, 1.52948, -0.297804][-0.00000, 0.92883, -0.37050][0.23025, 0.20318, 0][0, 1.48545, -0.344143][0.00000, 0.72462, -0.68915][0.24480, 0.20318, 0][-0.507181, 1.52948, -0.252279][-0.18009, 0.93431, -0.30763][0.21596, 0.36244, 0][0, 1.52948, 0.297803][0.00000, 0.96959, 0.24475][0.04323, 0.20318, 0][-0.507181, 1.52948, -0.252279][-0.18009, 0.93431, -0.30763][0.21596, 0.36244, 0][-0.507181, 1.52948, 0.252279][-0.33772, 0.88789, 0.31241][0.05753, 0.36244, 0][0, 1.52948, 0.297803][0.00000, 0.96959, 0.24475][0.04323, 0.20318, 0][-0.507181, 1.52948, 0.252279][-0.33772, 0.88789, 0.31241][0.05753, 0.36244, 0][0, 1.48545, 0.344142][0.00000, 0.72462, 0.68915][0.02868, 0.20318, 0][-0.554429, 1.48545, -0.294284][-0.06189, 0.72292, -0.68816][0.22915, 0.37727, 0][-0.507181, 1.52948, -0.252279][-0.18009, 0.93431, -0.30763][0.21596, 0.36244, 0][0, 1.48545, -0.344143][0.00000, 0.72462, -0.68915][0.24480, 0.20318, 0][-0.507181, 1.52948, -0.252279][-0.18009, 0.93431, -0.30763][0.21596, 0.36244, 0][-0.554429, 1.48545, -0.294284][-0.68175, 0.73158, 0.00000][0.22915, 0.37727, 0][-0.507181, 1.52948, 0.252279][-0.33772, 0.88789, 0.31241][0.05753, 0.36244, 0][-0.554429, 1.48545, 0.294284][-0.06188, 0.72292, 0.68816][0.04434, 0.37727, 0][0, 1.48545, 0.344142][0.00000, 0.72462, 0.68915][0.02868, 0.20318, 0][-0.507181, 1.52948, 0.252279][-0.33772, 0.88789, 0.31241][0.05753, 0.36244, 0][-0.507181, 1.52948, 0.252279][-0.33772, 0.88789, 0.31241][0.05753, 0.36244, 0][-0.554429, 1.48545, -0.294284][-0.68175, 0.73158, 0.00000][0.22915, 0.37727, 0][-0.554429, 1.48545, 0.294284][-0.68175, 0.73158, 0.00000][0.04434, 0.37727, 0][0, 1.63522, 0.071377][0.45576, 0.00000, 0.89010][0.28102, 0.64723, 0][0.0697, 1.63522, 0.035688][0.45576, 0.00000, 0.89010][0.25243, 0.64723, 0][0.0697, 2.46174, 0.035688][0.45576, 0.00000, 0.89010][0.25243, 0.98625, 0][-0.0697, 1.63522, 0.035688][-0.45576, -0.00000, 0.89010][0.30961, 0.64723, 0][0, 1.63522, 0.071377][-0.45576, 0.00000, 0.89010][0.28102, 0.64723, 0][0, 2.46174, 0.071377][-0.45576, -0.00000, 0.89010][0.28102, 0.98625, 0][-0.0697, 2.46174, 0.035688][-0.45576, -0.00000, 0.89010][0.30961, 0.98625, 0][-0.0697, 1.63522, 0.035688][-0.45576, -0.00000, 0.89010][0.30961, 0.64723, 0][0, 2.46174, 0.071377][-0.45576, -0.00000, 0.89010][0.28102, 0.98625, 0][0, 2.46174, 0.071377][0.45576, 0.00000, 0.89010][0.28102, 0.98625, 0][0, 1.63522, 0.071377][0.45576, 0.00000, 0.89010][0.28102, 0.64723, 0][0.0697, 2.46174, 0.035688][0.45576, 0.00000, 0.89010][0.25243, 0.98625, 0][-0.171032, 2.52388, 0.087573][-0.45576, 0.00000, 0.89010][0.36394, 0.89849, 0][0, 2.52388, 0.175146][-0.45576, 0.00000, 0.89010][0.33565, 0.89849, 0][0, 2.68546, 0.175146][-0.07544, 0.39273, 0.91655][0.33565, 0.95069, 0][-0.171032, 2.68546, 0.087573][-0.43298, 0.31216, 0.84563][0.36394, 0.95069, 0][-0.171032, 2.52388, 0.087573][-0.45576, 0.00000, 0.89010][0.36394, 0.89849, 0][0, 2.68546, 0.175146][-0.07544, 0.39273, 0.91655][0.33565, 0.95069, 0][-0.171032, 2.68546, 0.087573][-0.43298, 0.31216, 0.84563][0.36394, 0.95069, 0][0, 2.68546, 0.175146][-0.07544, 0.39273, 0.91655][0.33565, 0.95069, 0][-0.105746, 2.76624, 0.054145][-0.36694, 0.59311, 0.71664][0.37474, 0.97678, 0][0, 2.76624, 0.10829][0.00000, 0.63759, 0.77038][0.35725, 0.97678, 0][-0.105746, 2.76624, 0.054145][-0.36694, 0.59311, 0.71664][0.37474, 0.97678, 0][0, 2.68546, 0.175146][-0.07544, 0.39273, 0.91655][0.33565, 0.95069, 0][0, 2.76624, 0.10829][0.00000, 0.63759, 0.77038][0.35725, 0.97678, 0][0, 2.68546, 0.175146][-0.07544, 0.39273, 0.91655][0.33565, 0.95069, 0][0.105746, 2.76624, 0.054145][0.36694, 0.59311, 0.71664][0.37474, 0.97678, 0][0, 2.68546, 0.175146][-0.07544, 0.39273, 0.91655][0.33565, 0.95069, 0][0.171032, 2.68546, 0.087573][0.44590, 0.20687, 0.87085][0.36394, 0.95069, 0][0.105746, 2.76624, 0.054145][0.36694, 0.59311, 0.71664][0.37474, 0.97678, 0][0, 2.68546, 0.175146][-0.07544, 0.39273, 0.91655][0.33565, 0.95069, 0][0, 2.52388, 0.175146][0.45576, 0.00000, 0.89010][0.33565, 0.89849, 0][0.171032, 2.68546, 0.087573][0.44590, 0.20687, 0.87085][0.36394, 0.95069, 0][0, 2.52388, 0.175146][0.45576, 0.00000, 0.89010][0.33565, 0.89849, 0][0.171032, 2.52388, 0.087573][0.45576, 0.00000, 0.89010][0.36394, 0.89849, 0][0.171032, 2.68546, 0.087573][0.44590, 0.20687, 0.87085][0.36394, 0.95069, 0][0.14068, 1.4918, 0.147477][0.49050, 0.00000, 0.87144][0.20566, 0.90468, 0][0.060669, 1.63326, 0.192512][0.33676, 0.00000, 0.94159][0.23096, 0.98415, 0][0.060669, 1.4918, 0.192512][0.16838, 0.00000, 0.98572][0.23096, 0.90468, 0][0.060669, 1.63326, 0.192512][0.33676, 0.00000, 0.94159][0.23096, 0.98415, 0][0.14068, 1.4918, 0.147477][0.49050, 0.00000, 0.87144][0.20566, 0.90468, 0][0.14068, 1.63326, 0.147477][0.49050, 0.00000, 0.87144][0.20566, 0.98415, 0][-0.060669, 1.63326, 0.192512][-0.16838, 0.00000, 0.98572][0.23096, 0.98415, 0][0.060669, 1.4918, 0.192512][0.16838, 0.00000, 0.98572][0.23096, 0.90468, 0][0.060669, 1.63326, 0.192512][0.33676, 0.00000, 0.94159][0.23096, 0.98415, 0][-0.060669, 1.63326, 0.192512][-0.16838, 0.00000, 0.98572][0.23096, 0.98415, 0][-0.060669, 1.4918, 0.192512][-0.33676, 0.00000, 0.94159][0.23096, 0.90468, 0][0.060669, 1.4918, 0.192512][0.16838, 0.00000, 0.98572][0.23096, 0.90468, 0][-0.060669, 1.4918, 0.192512][-0.33676, 0.00000, 0.94159][0.23096, 0.90468, 0][-0.14068, 1.63326, 0.147477][-0.49050, 0.00000, 0.87144][0.20566, 0.98415, 0][-0.14068, 1.4918, 0.147477][-0.49050, 0.00000, 0.87144][0.20566, 0.90468, 0][-0.14068, 1.63326, 0.147477][-0.49050, 0.00000, 0.87144][0.20566, 0.98415, 0][-0.060669, 1.4918, 0.192512][-0.33676, 0.00000, 0.94159][0.23096, 0.90468, 0][-0.060669, 1.63326, 0.192512][-0.16838, 0.00000, 0.98572][0.23096, 0.98415, 0][0, 1.48545, 0.344142][0.00000, 0.04650, 0.99892][0.90417, 0.29865, 0][0, 0.701041, 0.380658][-0.00000, 0.05626, 0.99842][0.90417, 0.15560, 0][0.554429, 1.48545, 0.294284][0.09081, 0.04536, 0.99483][0.84604, 0.29865, 0][-0.554429, 1.48545, 0.294284][-0.09081, 0.04536, 0.99483][0.96231, 0.29865, 0][0, 0.701041, 0.380658][-0.00000, 0.05626, 0.99842][0.90417, 0.15560, 0][0, 1.48545, 0.344142][0.00000, 0.04650, 0.99892][0.90417, 0.29865, 0][-0.554429, 1.48545, 0.294284][-0.09081, 0.04536, 0.99483][0.96231, 0.29865, 0][-0.610291, 0.701041, 0.324118][-0.07653, 0.07857, 0.99397][0.96817, 0.15560, 0][0, 0.701041, 0.380658][-0.00000, 0.05626, 0.99842][0.90417, 0.15560, 0][0.610291, 0.701041, 0.324118][0.07653, 0.07857, 0.99397][0.84018, 0.15560, 0][0.554429, 1.48545, 0.294284][0.09081, 0.04536, 0.99483][0.84604, 0.29865, 0][0, 0.701041, 0.380658][-0.00000, 0.05626, 0.99842][0.90417, 0.15560, 0][-0.610291, 0.701041, 0.324118][-0.07653, 0.07857, 0.99397][0.96817, 0.15560, 0][0, -0.078868, 0.441419][-0.00000, 0.09584, 0.99540][0.90417, 0.01336, 0][0, 0.701041, 0.380658][-0.00000, 0.05626, 0.99842][0.90417, 0.15560, 0][0, 0.701041, 0.380658][-0.00000, 0.05626, 0.99842][0.90417, 0.15560, 0][0, -0.078868, 0.441419][-0.00000, 0.09584, 0.99540][0.90417, 0.01336, 0][0.610291, 0.701041, 0.324118][0.07653, 0.07857, 0.99397][0.84018, 0.15560, 0][-0.610291, 0.701041, 0.324118][-0.07653, 0.07857, 0.99397][0.96817, 0.15560, 0][-0.711197, -0.079035, 0.408961][-0.04532, 0.11381, 0.99247][0.97875, 0.01333, 0][0, -0.078868, 0.441419][-0.00000, 0.09584, 0.99540][0.90417, 0.01336, 0][-0.668727, -0.127403, 0.367554][-0.03273, -0.67322, 0.73871][0.23132, 0.37545, 0][0, -0.078868, 0.441419][0.00000, -0.67358, 0.73911][0.25043, 0.20237, 0][-0.711197, -0.079035, 0.408961][-0.03381, -0.66692, 0.74436][0.24203, 0.38644, 0][0, -0.078868, 0.441419][0.00000, -0.67358, 0.73911][0.25043, 0.20237, 0][-0.668727, -0.127403, 0.367554][-0.03273, -0.67322, 0.73871][0.23132, 0.37545, 0][0, -0.127403, 0.396429][0.00000, -0.67982, 0.73338][0.23879, 0.20237, 0][0.711197, -0.079035, 0.408961][0.04532, 0.11381, 0.99247][0.82960, 0.01333, 0][0.610291, 0.701041, 0.324118][0.07653, 0.07857, 0.99397][0.84018, 0.15560, 0][0, -0.078868, 0.441419][-0.00000, 0.09584, 0.99540][0.90417, 0.01336, 0][0, -0.127403, 0.396429][0.00000, -0.67982, 0.73338][0.23879, 0.20237, 0][0.668727, -0.127403, 0.367554][0.03273, -0.67322, 0.73871][0.23132, 0.02929, 0][0, -0.078868, 0.441419][0.00000, -0.67358, 0.73911][0.25043, 0.20237, 0][0.711197, -0.079035, 0.408961][0.03381, -0.66692, 0.74436][0.24203, 0.01830, 0][0, -0.078868, 0.441419][0.00000, -0.67358, 0.73911][0.25043, 0.20237, 0][0.668727, -0.127403, 0.367554][0.03273, -0.67322, 0.73871][0.23132, 0.02929, 0][-0.0697, 2.46174, 0.035688][-1.00000, 0.00000, 0.00000][0.30961, 0.98625, 0][-0.0697, 2.46174, -0.035688][-1.00000, 0.00000, 0.00000][0.30961, 0.98625, 0][-0.0697, 1.63522, -0.035688][-1.00000, 0.00000, 0.00000][0.30961, 0.64723, 0][-0.0697, 1.63522, -0.035688][-1.00000, 0.00000, 0.00000][0.30961, 0.64723, 0][-0.0697, 1.63522, 0.035688][-1.00000, 0.00000, 0.00000][0.30961, 0.64723, 0][-0.0697, 2.46174, 0.035688][-1.00000, 0.00000, 0.00000][0.30961, 0.98625, 0][-0.171032, 2.68546, 0.087573][-0.97534, 0.22071, 0.00000][0.36394, 0.95069, 0][-0.171032, 2.52388, -0.087573][-1.00000, 0.00000, 0.00000][0.42052, 0.89849, 0][-0.171032, 2.52388, 0.087573][-1.00000, 0.00000, 0.00000][0.36394, 0.89849, 0][-0.171032, 2.68546, 0.087573][-0.97534, 0.22071, 0.00000][0.36394, 0.95069, 0][-0.171032, 2.68546, -0.087573][-0.89730, 0.44142, 0.00000][0.42052, 0.95069, 0][-0.171032, 2.52388, -0.087573][-1.00000, 0.00000, 0.00000][0.42052, 0.89849, 0][-0.105746, 2.76624, 0.054145][-0.77775, 0.62857, 0.00000][0.37474, 0.97678, 0][-0.171032, 2.68546, -0.087573][-0.89730, 0.44142, 0.00000][0.42052, 0.95069, 0][-0.171032, 2.68546, 0.087573][-0.97534, 0.22071, 0.00000][0.36394, 0.95069, 0][-0.105746, 2.76624, 0.054145][-0.77775, 0.62857, 0.00000][0.37474, 0.97678, 0][-0.105746, 2.76624, -0.054145][-0.77775, 0.62857, 0.00000][0.40972, 0.97678, 0][-0.171032, 2.68546, -0.087573][-0.89730, 0.44142, 0.00000][0.42052, 0.95069, 0][-0.042468, 2.65452, -0.650014][-0.99713, -0.00000, -0.07576][0.60222, 0.94069, 0][-0.068823, 2.52388, -0.176075][-0.99846, -0.00000, -0.05552][0.44911, 0.89849, 0][-0.068823, 2.68546, -0.176075][-0.99846, 0.00000, -0.05552][0.44911, 0.95069, 0][-0.042468, 2.65452, -0.650014][-0.99713, -0.00000, -0.07576][0.60222, 0.94069, 0][-0.042468, 2.55482, -0.650014][-0.99524, -0.02560, -0.09407][0.60222, 0.90848, 0][-0.068823, 2.52388, -0.176075][-0.99846, -0.00000, -0.05552][0.44911, 0.89849, 0][-0.042468, 2.55482, -0.650014][-0.99524, -0.02560, -0.09407][0.60222, 0.90848, 0][-0.042468, 2.65452, -0.650014][-0.99713, -0.00000, -0.07576][0.60222, 0.94069, 0][-0.020944, 2.54129, -0.834072][-0.99561, -0.03376, -0.08727][0.66168, 0.90411, 0][-0.020944, 2.54129, -0.834072][-0.99561, -0.03376, -0.08727][0.66168, 0.90411, 0][-0.020944, 2.50261, -0.807152][-0.99731, -0.04190, -0.06020][0.65298, 0.89162, 0][-0.042468, 2.55482, -0.650014][-0.99524, -0.02560, -0.09407][0.60222, 0.90848, 0][-0.020944, 2.50261, -0.807152][-0.99731, -0.04190, -0.06020][0.65298, 0.89162, 0][-0.020944, 2.54129, -0.834072][-0.99561, -0.03376, -0.08727][0.66168, 0.90411, 0][-0.017511, 2.48461, -0.89234][-0.99909, -0.02443, -0.03510][0.68050, 0.88580, 0][-0.017511, 2.48461, -0.89234][-0.99909, -0.02443, -0.03510][0.68050, 0.88580, 0][-0.017511, 2.45227, -0.869832][-0.99909, -0.02443, -0.03510][0.67323, 0.87536, 0][-0.020944, 2.50261, -0.807152][-0.99731, -0.04190, -0.06020][0.65298, 0.89162, 0][-0.14068, 1.63326, -0.147477][-0.86043, 0.00000, -0.50957][0.03997, 0.98415, 0][-0.14068, 1.4918, -0.147477][-0.86043, 0.00000, -0.50957][0.03997, 0.90468, 0][-0.201349, 1.4918, -0.045035][-0.93646, 0.00000, -0.35077][0.09752, 0.90468, 0][-0.201349, 1.63326, -0.045035][-0.98450, 0.00000, -0.17538][0.09752, 0.98415, 0][-0.14068, 1.63326, -0.147477][-0.86043, 0.00000, -0.50957][0.03997, 0.98415, 0][-0.201349, 1.4918, -0.045035][-0.93646, 0.00000, -0.35077][0.09752, 0.90468, 0][-0.201349, 1.4918, 0.045035][-0.98450, 0.00000, 0.17538][0.14811, 0.90468, 0][-0.201349, 1.63326, -0.045035][-0.98450, 0.00000, -0.17538][0.09752, 0.98415, 0][-0.201349, 1.4918, -0.045035][-0.93646, 0.00000, -0.35077][0.09752, 0.90468, 0][-0.201349, 1.63326, 0.045035][-0.93646, 0.00000, 0.35077][0.14811, 0.98415, 0][-0.201349, 1.63326, -0.045035][-0.98450, 0.00000, -0.17538][0.09752, 0.98415, 0][-0.201349, 1.4918, 0.045035][-0.98450, 0.00000, 0.17538][0.14811, 0.90468, 0][-0.201349, 1.63326, 0.045035][-0.93646, 0.00000, 0.35077][0.14811, 0.98415, 0][-0.201349, 1.4918, 0.045035][-0.98450, 0.00000, 0.17538][0.14811, 0.90468, 0][-0.14068, 1.4918, 0.147477][-0.86043, 0.00000, 0.50957][0.20566, 0.90468, 0][-0.14068, 1.63326, 0.147477][-0.86043, 0.00000, 0.50957][0.20566, 0.98415, 0][-0.201349, 1.63326, 0.045035][-0.93646, 0.00000, 0.35077][0.14811, 0.98415, 0][-0.14068, 1.4918, 0.147477][-0.86043, 0.00000, 0.50957][0.20566, 0.90468, 0][-0.554429, 1.48545, 0.294284][-0.99747, 0.07104, 0.00000][0.95812, 0.30032, 0][-0.554429, 1.48545, -0.294284][-0.99747, 0.07104, 0.00000][0.84973, 0.30032, 0][-0.610291, 0.701041, 0.324118][-0.99502, 0.09970, 0.00000][0.96362, 0.15587, 0][-0.610291, 0.701041, 0.324118][-0.99502, 0.09970, 0.00000][0.96362, 0.15587, 0][-0.554429, 1.48545, -0.294284][-0.99747, 0.07104, 0.00000][0.84973, 0.30032, 0][-0.610291, 0.701041, -0.324118][-0.99502, 0.09970, 0.00000][0.84424, 0.15587, 0][-0.610291, 0.701041, -0.324118][-0.99502, 0.09970, 0.00000][0.84424, 0.15587, 0][-0.711197, -0.079035, -0.408961][-0.99174, 0.12829, 0.00000][0.82862, 0.01221, 0][-0.610291, 0.701041, 0.324118][-0.99502, 0.09970, 0.00000][0.96362, 0.15587, 0][-0.711197, -0.079035, 0.408961][-0.99174, 0.12829, 0.00000][0.97924, 0.01221, 0][-0.610291, 0.701041, 0.324118][-0.99502, 0.09970, 0.00000][0.96362, 0.15587, 0][-0.711197, -0.079035, -0.408961][-0.99174, 0.12829, 0.00000][0.82862, 0.01221, 0][-0.668727, -0.127403, -0.367554][-0.75144, -0.65981, 0.00000][0.04106, 0.37545, 0][-0.711197, -0.079035, 0.408961][-0.75144, -0.65981, 0.00000][0.24203, 0.38644, 0][-0.711197, -0.079035, -0.408961][-0.75144, -0.65981, 0.00000][0.03034, 0.38644, 0][-0.668727, -0.127403, 0.367554][-0.75144, -0.65981, 0.00000][0.23132, 0.37545, 0][-0.711197, -0.079035, 0.408961][-0.75144, -0.65981, 0.00000][0.24203, 0.38644, 0][-0.668727, -0.127403, -0.367554][-0.75144, -0.65981, 0.00000][0.04106, 0.37545, 0][0, 2.46174, -0.071377][-0.00000, -0.89708, -0.44187][0.41529, 0.87841, 0][0.068824, 2.52388, -0.176075][0.13741, -0.92736, -0.34802][0.44911, 0.89849, 0][0.0697, 2.46174, -0.035688][0.36221, -0.89296, -0.26725][0.40376, 0.87841, 0][0, 2.46174, 0.071377][0.00000, -0.85794, 0.51376][0.36917, 0.87841, 0][0, 2.52388, 0.175146][0.00000, -0.85794, 0.51376][0.33565, 0.89849, 0][-0.0697, 2.46174, 0.035688][-0.35675, -0.86869, 0.34366][0.38070, 0.87841, 0][0, 2.46174, 0.071377][0.00000, -0.85794, 0.51376][0.36917, 0.87841, 0][0.0697, 2.46174, 0.035688][0.40509, -0.87683, 0.25898][0.38070, 0.87841, 0][0, 2.52388, 0.175146][0.00000, -0.85794, 0.51376][0.33565, 0.89849, 0][-0.0697, 2.46174, 0.035688][-0.35675, -0.86869, 0.34366][0.38070, 0.87841, 0][-0.171032, 2.52388, 0.087573][-0.44956, -0.87657, 0.17183][0.36394, 0.89849, 0][-0.0697, 2.46174, -0.035688][-0.40699, -0.89104, -0.20101][0.40376, 0.87841, 0][-0.0697, 2.46174, 0.035688][-0.35675, -0.86869, 0.34366][0.38070, 0.87841, 0][0, 2.52388, 0.175146][0.00000, -0.85794, 0.51376][0.33565, 0.89849, 0][-0.171032, 2.52388, 0.087573][-0.44956, -0.87657, 0.17183][0.36394, 0.89849, 0][0, 2.46174, -0.071377][-0.00000, -0.89708, -0.44187][0.41529, 0.87841, 0][-0.0697, 2.46174, -0.035688][-0.40699, -0.89104, -0.20101][0.40376, 0.87841, 0][-0.068823, 2.52388, -0.176075][-0.11029, -0.94981, -0.29274][0.44911, 0.89849, 0][-0.068823, 2.52388, -0.176075][-0.11029, -0.94981, -0.29274][0.44911, 0.89849, 0][0.068824, 2.52388, -0.176075][0.13741, -0.92736, -0.34802][0.44911, 0.89849, 0][0, 2.46174, -0.071377][-0.00000, -0.89708, -0.44187][0.41529, 0.87841, 0][-0.171032, 2.52388, 0.087573][-0.44956, -0.87657, 0.17183][0.36394, 0.89849, 0][-0.171032, 2.52388, -0.087573][-0.43758, -0.87749, -0.19632][0.42052, 0.89849, 0][-0.0697, 2.46174, -0.035688][-0.40699, -0.89104, -0.20101][0.40376, 0.87841, 0][-0.171032, 2.52388, -0.087573][-0.43758, -0.87749, -0.19632][0.42052, 0.89849, 0][-0.068823, 2.52388, -0.176075][-0.11029, -0.94981, -0.29274][0.44911, 0.89849, 0][-0.0697, 2.46174, -0.035688][-0.40699, -0.89104, -0.20101][0.40376, 0.87841, 0][0.171032, 2.52388, 0.087573][0.40509, -0.87683, 0.25898][0.36394, 0.89849, 0][0, 2.52388, 0.175146][0.00000, -0.85794, 0.51376][0.33565, 0.89849, 0][0.0697, 2.46174, 0.035688][0.40509, -0.87683, 0.25898][0.38070, 0.87841, 0][0.0697, 2.46174, 0.035688][0.40509, -0.87683, 0.25898][0.38070, 0.87841, 0][0.171032, 2.52388, -0.087573][0.46887, -0.87357, -0.13053][0.42052, 0.89849, 0][0.171032, 2.52388, 0.087573][0.40509, -0.87683, 0.25898][0.36394, 0.89849, 0][0.0697, 2.46174, -0.035688][0.36221, -0.89296, -0.26725][0.40376, 0.87841, 0][0.171032, 2.52388, -0.087573][0.46887, -0.87357, -0.13053][0.42052, 0.89849, 0][0.0697, 2.46174, 0.035688][0.40509, -0.87683, 0.25898][0.38070, 0.87841, 0][0.171032, 2.52388, -0.087573][0.46887, -0.87357, -0.13053][0.42052, 0.89849, 0][0.0697, 2.46174, -0.035688][0.36221, -0.89296, -0.26725][0.40376, 0.87841, 0][0.068824, 2.52388, -0.176075][0.13741, -0.92736, -0.34802][0.44911, 0.89849, 0][0.068824, 2.52388, -0.176075][0.13741, -0.92736, -0.34802][0.44911, 0.89849, 0][-0.068823, 2.52388, -0.176075][-0.11029, -0.94981, -0.29274][0.44911, 0.89849, 0][0.042468, 2.55482, -0.650014][0.00000, -0.99185, 0.12745][0.60222, 0.90848, 0][-0.042468, 2.55482, -0.650014][0.00000, -0.99185, 0.12745][0.60222, 0.90848, 0][0.042468, 2.55482, -0.650014][0.00000, -0.99185, 0.12745][0.60222, 0.90848, 0][-0.068823, 2.52388, -0.176075][-0.11029, -0.94981, -0.29274][0.44911, 0.89849, 0][-0.020944, 2.50261, -0.807152][0.00000, -0.90525, 0.42489][0.65298, 0.89162, 0][0.042468, 2.55482, -0.650014][0.00000, -0.99185, 0.12745][0.60222, 0.90848, 0][-0.042468, 2.55482, -0.650014][0.00000, -0.99185, 0.12745][0.60222, 0.90848, 0][-0.020944, 2.50261, -0.807152][0.00000, -0.90525, 0.42489][0.65298, 0.89162, 0][0.020944, 2.50261, -0.807152][0.00000, -0.84801, 0.52999][0.65298, 0.89162, 0][0.042468, 2.55482, -0.650014][0.00000, -0.99185, 0.12745][0.60222, 0.90848, 0][-0.020944, 2.50261, -0.807152][0.00000, -0.90525, 0.42489][0.65298, 0.89162, 0][-0.017511, 2.45227, -0.869832][0.00000, -0.77968, 0.62618][0.67323, 0.87536, 0][0.020944, 2.50261, -0.807152][0.00000, -0.84801, 0.52999][0.65298, 0.89162, 0][0.020944, 2.50261, -0.807152][0.00000, -0.84801, 0.52999][0.65298, 0.89162, 0][-0.017511, 2.45227, -0.869832][0.00000, -0.77968, 0.62618][0.67323, 0.87536, 0][0.017511, 2.45227, -0.869832][0.00000, -0.77968, 0.62618][0.67323, 0.87536, 0][0.060669, 1.4918, 0.192512][0.00000, -1.00000, 0.00000][0.35350, 0.78936, 0][0.14068, 1.4918, -0.147477][0.00000, -1.00000, 0.00000][0.55936, 0.83102, 0][0.14068, 1.4918, 0.147477][0.00000, -1.00000, 0.00000][0.38210, 0.83659, 0][0.201349, 1.4918, 0.045035][0.00000, -1.00000, 0.00000][0.44482, 0.87109, 0][0.14068, 1.4918, 0.147477][0.00000, -1.00000, 0.00000][0.38210, 0.83659, 0][0.14068, 1.4918, -0.147477][0.00000, -1.00000, 0.00000][0.55936, 0.83102, 0][0.201349, 1.4918, -0.045035][0.00000, -1.00000, 0.00000][0.49894, 0.86939, 0][0.201349, 1.4918, 0.045035][0.00000, -1.00000, 0.00000][0.44482, 0.87109, 0][0.14068, 1.4918, -0.147477][0.00000, -1.00000, 0.00000][0.55936, 0.83102, 0][0.060669, 1.4918, -0.192512][0.00000, -1.00000, 0.00000][0.58495, 0.78209, 0][0.14068, 1.4918, -0.147477][0.00000, -1.00000, 0.00000][0.55936, 0.83102, 0][0.060669, 1.4918, 0.192512][0.00000, -1.00000, 0.00000][0.35350, 0.78936, 0][-0.060669, 1.4918, -0.192512][0.00000, -1.00000, 0.00000][0.58270, 0.70914, 0][0.060669, 1.4918, -0.192512][0.00000, -1.00000, 0.00000][0.58495, 0.78209, 0][0.060669, 1.4918, 0.192512][0.00000, -1.00000, 0.00000][0.35350, 0.78936, 0][0.060669, 1.4918, 0.192512][0.00000, -1.00000, 0.00000][0.35350, 0.78936, 0][-0.060669, 1.4918, 0.192512][0.00000, -1.00000, 0.00000][0.35117, 0.71642, 0][-0.060669, 1.4918, -0.192512][0.00000, -1.00000, 0.00000][0.58270, 0.70914, 0][-0.14068, 1.4918, -0.147477][0.00000, -1.00000, 0.00000][0.55412, 0.66185, 0][-0.060669, 1.4918, -0.192512][0.00000, -1.00000, 0.00000][0.58270, 0.70914, 0][-0.060669, 1.4918, 0.192512][0.00000, -1.00000, 0.00000][0.35117, 0.71642, 0][-0.201349, 1.4918, -0.045035][0.00000, -1.00000, 0.00000][0.49136, 0.62728, 0][-0.14068, 1.4918, -0.147477][0.00000, -1.00000, 0.00000][0.55412, 0.66185, 0][-0.201349, 1.4918, 0.045035][0.00000, -1.00000, 0.00000][0.43718, 0.62898, 0][-0.201349, 1.4918, 0.045035][0.00000, -1.00000, 0.00000][0.43718, 0.62898, 0][-0.14068, 1.4918, -0.147477][0.00000, -1.00000, 0.00000][0.55412, 0.66185, 0][-0.14068, 1.4918, 0.147477][0.00000, -1.00000, 0.00000][0.37671, 0.66743, 0][-0.14068, 1.4918, 0.147477][0.00000, -1.00000, 0.00000][0.37671, 0.66743, 0][-0.14068, 1.4918, -0.147477][0.00000, -1.00000, 0.00000][0.55412, 0.66185, 0][-0.060669, 1.4918, 0.192512][0.00000, -1.00000, 0.00000][0.35117, 0.71642, 0][-0.668727, -0.127403, -0.367554][0.00000, -1.00000, 0.00000][0.04106, 0.37545, 0][0, -0.127403, -0.396429][0.00000, -1.00000, 0.00000][0.03359, 0.20237, 0][-0.668727, -0.127403, 0.367554][0.00000, -1.00000, 0.00000][0.23132, 0.37545, 0][0, -0.127403, 0.396429][0.00000, -1.00000, 0.00000][0.23879, 0.20237, 0][-0.668727, -0.127403, 0.367554][0.00000, -1.00000, 0.00000][0.23132, 0.37545, 0][0, -0.127403, -0.396429][0.00000, -1.00000, 0.00000][0.03359, 0.20237, 0][0, -0.127403, -0.396429][0.00000, -1.00000, 0.00000][0.03359, 0.20237, 0][0.668727, -0.127403, -0.367554][0.00000, -1.00000, 0.00000][0.04106, 0.02929, 0][0, -0.127403, 0.396429][0.00000, -1.00000, 0.00000][0.23879, 0.20237, 0][0.668727, -0.127403, 0.367554][0.00000, -1.00000, 0.00000][0.23132, 0.02929, 0][0, -0.127403, 0.396429][0.00000, -1.00000, 0.00000][0.23879, 0.20237, 0][0.668727, -0.127403, -0.367554][0.00000, -1.00000, 0.00000][0.04106, 0.02929, 0][0, 2.46174, -0.071377][0.45576, -0.00000, -0.89010][0.28102, 0.98625, 0][0.0697, 2.46174, -0.035688][0.45576, 0.00000, -0.89010][0.25243, 0.98625, 0][0.0697, 1.63522, -0.035688][0.45576, -0.00000, -0.89010][0.25243, 0.64723, 0][0, 1.63522, -0.071377][0.45576, -0.00000, -0.89010][0.28102, 0.64723, 0][0, 2.46174, -0.071377][0.45576, -0.00000, -0.89010][0.28102, 0.98625, 0][0.0697, 1.63522, -0.035688][0.45576, -0.00000, -0.89010][0.25243, 0.64723, 0][-0.0697, 2.46174, -0.035688][-0.45576, 0.00000, -0.89010][0.30961, 0.98625, 0][0, 2.46174, -0.071377][-0.45576, 0.00000, -0.89010][0.28102, 0.98625, 0][0, 1.63522, -0.071377][-0.45576, 0.00000, -0.89010][0.28102, 0.64723, 0][-0.0697, 1.63522, -0.035688][-0.45576, 0.00000, -0.89010][0.30961, 0.64723, 0][-0.0697, 2.46174, -0.035688][-0.45576, 0.00000, -0.89010][0.30961, 0.98625, 0][0, 1.63522, -0.071377][-0.45576, 0.00000, -0.89010][0.28102, 0.64723, 0][-0.171032, 2.52388, -0.087573][-0.65460, 0.00000, -0.75598][0.42052, 0.89849, 0][-0.171032, 2.68546, -0.087573][-0.65460, 0.00000, -0.75598][0.42052, 0.95069, 0][-0.068823, 2.52388, -0.176075][-0.65460, 0.00000, -0.75598][0.44911, 0.89849, 0][-0.068823, 2.52388, -0.176075][-0.65460, 0.00000, -0.75598][0.44911, 0.89849, 0][-0.171032, 2.68546, -0.087573][-0.65460, 0.00000, -0.75598][0.42052, 0.95069, 0][-0.068823, 2.68546, -0.176075][-0.65460, 0.00000, -0.75598][0.44911, 0.95069, 0][0, 2.76624, -0.10829][-0.00000, 0.67141, -0.74109][0.42722, 0.97678, 0][0, 2.76621, -0.108317][-0.00000, 0.67141, -0.74109][0.42722, 0.97677, 0][-0.105746, 2.76624, -0.054145][-0.35478, 0.62772, -0.69289][0.40972, 0.97678, 0][0, 2.76624, -0.10829][-0.00000, 0.67141, -0.74109][0.42722, 0.97678, 0][0.105746, 2.76624, -0.054145][0.35477, 0.62774, -0.69287][0.40972, 0.97678, 0][0, 2.76621, -0.108317][-0.00000, 0.67141, -0.74109][0.42722, 0.97677, 0][0, 2.76621, -0.108317][0.00000, 0.64279, -0.76604][0.42722, 0.97677, 0][0.068824, 2.68546, -0.176075][0.00000, 0.64279, -0.76604][0.44911, 0.95069, 0][-0.068823, 2.68546, -0.176075][0.00000, 0.64279, -0.76604][0.44911, 0.95069, 0][0.171032, 2.52388, -0.087573][0.65460, -0.00000, -0.75598][0.42052, 0.89849, 0][0.068824, 2.68546, -0.176075][0.65460, -0.00000, -0.75598][0.44911, 0.95069, 0][0.171032, 2.68546, -0.087573][0.65460, 0.00000, -0.75598][0.42052, 0.95069, 0][0.068824, 2.52388, -0.176075][0.65460, -0.00000, -0.75598][0.44911, 0.89849, 0][0.068824, 2.68546, -0.176075][0.65460, -0.00000, -0.75598][0.44911, 0.95069, 0][0.171032, 2.52388, -0.087573][0.65460, -0.00000, -0.75598][0.42052, 0.89849, 0][-0.017511, 2.48461, -0.89234][-0.00000, -0.57125, -0.82078][0.72333, 0.66365, 0][0.017511, 2.48461, -0.89234][-0.00000, -0.57125, -0.82078][0.66657, 0.66405, 0][-0.017511, 2.45227, -0.869832][-0.00000, -0.57125, -0.82078][0.72389, 0.60006, 0][0.017511, 2.45227, -0.869832][-0.00000, -0.57125, -0.82078][0.66824, 0.60040, 0][-0.017511, 2.45227, -0.869832][-0.00000, -0.57125, -0.82078][0.72389, 0.60006, 0][0.017511, 2.48461, -0.89234][-0.00000, -0.57125, -0.82078][0.66657, 0.66405, 0][0.14068, 1.4918, -0.147477][0.49050, 0.00000, -0.87144][0.03997, 0.90468, 0][0.060669, 1.4918, -0.192512][0.33676, 0.00000, -0.94159][0.01467, 0.90468, 0][0.14068, 1.63326, -0.147477][0.49050, 0.00000, -0.87144][0.03997, 0.98415, 0][0.060669, 1.63326, -0.192512][0.16838, 0.00000, -0.98572][0.01467, 0.98415, 0][0.14068, 1.63326, -0.147477][0.49050, 0.00000, -0.87144][0.03997, 0.98415, 0][0.060669, 1.4918, -0.192512][0.33676, 0.00000, -0.94159][0.01467, 0.90468, 0][-0.060669, 1.4918, -0.192512][-0.16838, 0.00000, -0.98572][0.01467, 0.90468, 0][0.060669, 1.63326, -0.192512][0.16838, 0.00000, -0.98572][0.01467, 0.98415, 0][0.060669, 1.4918, -0.192512][0.33676, 0.00000, -0.94159][0.01467, 0.90468, 0][-0.060669, 1.4918, -0.192512][-0.16838, 0.00000, -0.98572][0.01467, 0.90468, 0][-0.060669, 1.63326, -0.192512][-0.33676, 0.00000, -0.94159][0.01467, 0.98415, 0][0.060669, 1.63326, -0.192512][0.16838, 0.00000, -0.98572][0.01467, 0.98415, 0][-0.060669, 1.4918, -0.192512][-0.16838, 0.00000, -0.98572][0.01467, 0.90468, 0][-0.14068, 1.4918, -0.147477][-0.49050, 0.00000, -0.87144][0.03997, 0.90468, 0][-0.060669, 1.63326, -0.192512][-0.33676, 0.00000, -0.94159][0.01467, 0.98415, 0][-0.14068, 1.63326, -0.147477][-0.49050, 0.00000, -0.87144][0.03997, 0.98415, 0][-0.060669, 1.63326, -0.192512][-0.33676, 0.00000, -0.94159][0.01467, 0.98415, 0][-0.14068, 1.4918, -0.147477][-0.49050, 0.00000, -0.87144][0.03997, 0.90468, 0][0, 1.48545, -0.344143][0.00000, 0.04650, -0.99892][0.54030, 0.55314, 0][0, 0.701041, -0.380658][-0.00000, 0.05626, -0.99842][0.54030, 0.28110, 0][-0.554429, 1.48545, -0.294284][-0.09081, 0.04536, -0.99483][0.73258, 0.55314, 0][0, 1.48545, -0.344143][0.00000, 0.04650, -0.99892][0.54030, 0.55314, 0][0.554429, 1.48545, -0.294284][0.09081, 0.04536, -0.99483][0.34802, 0.55314, 0][0, 0.701041, -0.380658][-0.00000, 0.05626, -0.99842][0.54030, 0.28110, 0][-0.610291, 0.701041, -0.324118][-0.07653, 0.07857, -0.99397][0.75195, 0.28110, 0][-0.554429, 1.48545, -0.294284][-0.09081, 0.04536, -0.99483][0.73258, 0.55314, 0][0, 0.701041, -0.380658][-0.00000, 0.05626, -0.99842][0.54030, 0.28110, 0][0.610291, 0.701041, -0.324118][0.07653, 0.07857, -0.99397][0.32865, 0.28110, 0][0, 0.701041, -0.380658][-0.00000, 0.05626, -0.99842][0.54030, 0.28110, 0][0.554429, 1.48545, -0.294284][0.09081, 0.04536, -0.99483][0.34802, 0.55314, 0][0, 0.701041, -0.380658][-0.00000, 0.05626, -0.99842][0.54030, 0.28110, 0][0, -0.078868, -0.441419][-0.00000, 0.09584, -0.99540][0.54030, 0.01063, 0][-0.610291, 0.701041, -0.324118][-0.07653, 0.07857, -0.99397][0.75195, 0.28110, 0][0, 0.701041, -0.380658][-0.00000, 0.05626, -0.99842][0.54030, 0.28110, 0][0.610291, 0.701041, -0.324118][0.07653, 0.07857, -0.99397][0.32865, 0.28110, 0][0, -0.078868, -0.441419][-0.00000, 0.09584, -0.99540][0.54030, 0.01063, 0][-0.711197, -0.079035, -0.408961][-0.04532, 0.11381, -0.99247][0.78694, 0.01057, 0][-0.610291, 0.701041, -0.324118][-0.07653, 0.07857, -0.99397][0.75195, 0.28110, 0][0, -0.078868, -0.441419][-0.00000, 0.09584, -0.99540][0.54030, 0.01063, 0][-0.711197, -0.079035, -0.408961][-0.03381, -0.66692, -0.74436][0.03034, 0.38644, 0][0, -0.078868, -0.441419][-0.00000, -0.67358, -0.73911][0.02194, 0.20237, 0][-0.668727, -0.127403, -0.367554][-0.03273, -0.67322, -0.73871][0.04106, 0.37545, 0][0, -0.127403, -0.396429][0.00000, -0.67982, -0.73338][0.03359, 0.20237, 0][-0.668727, -0.127403, -0.367554][-0.03273, -0.67322, -0.73871][0.04106, 0.37545, 0][0, -0.078868, -0.441419][-0.00000, -0.67358, -0.73911][0.02194, 0.20237, 0][0, -0.127403, -0.396429][0.00000, -0.67982, -0.73338][0.03359, 0.20237, 0][0, -0.078868, -0.441419][-0.00000, -0.67358, -0.73911][0.02194, 0.20237, 0][0.668727, -0.127403, -0.367554][0.03273, -0.67322, -0.73871][0.04106, 0.02929, 0][0.711197, -0.079035, -0.408961][0.04532, 0.11381, -0.99247][0.29365, 0.01057, 0][0, -0.078868, -0.441419][-0.00000, 0.09584, -0.99540][0.54030, 0.01063, 0][0.610291, 0.701041, -0.324118][0.07653, 0.07857, -0.99397][0.32865, 0.28110, 0][0.711197, -0.079035, -0.408961][0.03381, -0.66692, -0.74436][0.03034, 0.01830, 0][0.668727, -0.127403, -0.367554][0.03273, -0.67322, -0.73871][0.04106, 0.02929, 0][0, -0.078868, -0.441419][-0.00000, -0.67358, -0.73911][0.02194, 0.20237, 0]